<svg xmlns="http://www.w3.org/2000/svg" xmlns:xlink="http://www.w3.org/1999/xlink" width="500" zoomAndPan="magnify" viewBox="0 0 375 374.999991" height="500" preserveAspectRatio="xMidYMid meet" version="1.2"><defs><clipPath id="94e5eb7fe1"><path d="M 138.988281 85 L 235.738281 85 L 235.738281 290.324219 L 138.988281 290.324219 Z M 138.988281 85 "/></clipPath></defs><g id="eee16ae08a"><rect x="0" width="375" y="0" height="374.999991" style="fill:#ffffff;fill-opacity:1;stroke:none;"/><rect x="0" width="375" y="0" height="374.999991" style="fill:#4267b2;fill-opacity:1;stroke:none;"/><g clip-rule="nonzero" clip-path="url(#94e5eb7fe1)"><path style=" stroke:none;fill-rule:nonzero;fill:#ffffff;fill-opacity:1;" d="M 213.417969 118.914062 L 235.738281 118.914062 L 235.738281 85.144531 L 207.234375 85.144531 L 207.234375 85.273438 C 169.761719 86.652344 162.035156 107.714844 161.390625 129.984375 L 161.308594 129.984375 L 161.308594 153.417969 L 138.988281 153.417969 L 138.988281 187.230469 L 161.308594 187.230469 L 161.308594 290.007812 L 201.355469 290.007812 L 201.355469 187.230469 L 230.070312 187.230469 L 235.738281 153.417969 L 201.355469 153.417969 L 201.355469 132.4375 C 201.355469 124.988281 206.332031 118.914062 213.417969 118.914062 Z M 213.417969 118.914062 "/></g></g></svg>