<svg xmlns="http://www.w3.org/2000/svg" xmlns:xlink="http://www.w3.org/1999/xlink" width="500" zoomAndPan="magnify" viewBox="0 0 375 374.999991" height="500" preserveAspectRatio="xMidYMid meet" version="1.2"><defs><clipPath id="9912b19081"><path d="M 276.300781 -472.917969 C -143.808594 -472.917969 -484.375 -132.351562 -484.375 287.761719 C -484.375 707.871094 -143.808594 1048.4375 276.300781 1048.4375 C 696.414062 1048.4375 1036.980469 707.871094 1036.980469 287.761719 C 1036.980469 -132.351562 696.414062 -472.917969 276.300781 -472.917969 Z M 276.300781 -472.917969 "/></clipPath><clipPath id="3c9f546898"><path d="M 37.5 37.5 L 336.75 37.5 L 336.75 337.5 L 37.5 337.5 Z M 37.5 37.5 "/></clipPath></defs><g id="9f16b93e4f"><rect x="0" width="375" y="0" height="374.999991" style="fill:#ffffff;fill-opacity:1;stroke:none;"/><rect x="0" width="375" y="0" height="374.999991" style="fill:#ffffff;fill-opacity:1;stroke:none;"/><g clip-rule="nonzero" clip-path="url(#9912b19081)"><rect x="0" width="375" y="0" height="374.999991" style="fill:#000000;fill-opacity:1;stroke:none;"/></g><g clip-rule="nonzero" clip-path="url(#3c9f546898)"><path style=" stroke:none;fill-rule:nonzero;fill:#000000;fill-opacity:1;" d="M 336.746094 187.457031 C 336.746094 189.90625 336.6875 192.355469 336.566406 194.800781 C 336.449219 197.25 336.265625 199.691406 336.027344 202.128906 C 335.789062 204.566406 335.488281 206.996094 335.128906 209.421875 C 334.769531 211.84375 334.351562 214.257812 333.871094 216.660156 C 333.394531 219.0625 332.859375 221.453125 332.261719 223.828125 C 331.667969 226.207031 331.015625 228.566406 330.304688 230.910156 C 329.59375 233.253906 328.824219 235.578125 328 237.886719 C 327.175781 240.191406 326.292969 242.480469 325.359375 244.742188 C 324.421875 247.003906 323.429688 249.242188 322.382812 251.460938 C 321.335938 253.671875 320.234375 255.859375 319.078125 258.023438 C 317.925781 260.183594 316.71875 262.3125 315.460938 264.414062 C 314.199219 266.515625 312.890625 268.585938 311.53125 270.621094 C 310.171875 272.660156 308.761719 274.664062 307.304688 276.628906 C 305.84375 278.597656 304.339844 280.527344 302.785156 282.421875 C 301.230469 284.316406 299.632812 286.171875 297.988281 287.984375 C 296.34375 289.800781 294.65625 291.574219 292.925781 293.308594 C 291.191406 295.039062 289.417969 296.726562 287.605469 298.375 C 285.792969 300.019531 283.9375 301.621094 282.042969 303.175781 C 280.152344 304.726562 278.222656 306.234375 276.253906 307.691406 C 274.289062 309.152344 272.285156 310.5625 270.25 311.921875 C 268.214844 313.285156 266.144531 314.59375 264.046875 315.855469 C 261.945312 317.113281 259.816406 318.320312 257.65625 319.476562 C 255.496094 320.632812 253.308594 321.730469 251.097656 322.78125 C 248.882812 323.828125 246.644531 324.820312 244.382812 325.757812 C 242.121094 326.695312 239.835938 327.578125 237.53125 328.402344 C 235.226562 329.226562 232.902344 329.996094 230.558594 330.707031 C 228.214844 331.417969 225.855469 332.070312 223.480469 332.667969 C 221.105469 333.261719 218.714844 333.796875 216.316406 334.273438 C 213.914062 334.753906 211.5 335.171875 209.078125 335.53125 C 206.65625 335.890625 204.226562 336.191406 201.792969 336.433594 C 199.355469 336.671875 196.914062 336.851562 194.46875 336.972656 C 192.023438 337.09375 189.574219 337.152344 187.125 337.152344 C 184.675781 337.152344 182.230469 337.09375 179.785156 336.972656 C 177.339844 336.851562 174.898438 336.671875 172.460938 336.433594 C 170.023438 336.191406 167.59375 335.894531 165.171875 335.535156 C 162.75 335.171875 160.335938 334.753906 157.933594 334.277344 C 155.53125 333.796875 153.144531 333.261719 150.769531 332.667969 C 148.394531 332.070312 146.035156 331.417969 143.691406 330.707031 C 141.347656 329.996094 139.023438 329.226562 136.71875 328.402344 C 134.414062 327.578125 132.128906 326.695312 129.867188 325.757812 C 127.605469 324.820312 125.367188 323.828125 123.152344 322.78125 C 120.941406 321.730469 118.753906 320.632812 116.59375 319.476562 C 114.433594 318.320312 112.304688 317.113281 110.203125 315.855469 C 108.105469 314.59375 106.035156 313.285156 104 311.921875 C 101.964844 310.5625 99.960938 309.152344 97.996094 307.691406 C 96.027344 306.234375 94.097656 304.726562 92.207031 303.175781 C 90.3125 301.621094 88.460938 300.019531 86.644531 298.375 C 84.832031 296.726562 83.058594 295.039062 81.324219 293.308594 C 79.59375 291.574219 77.90625 289.800781 76.261719 287.984375 C 74.617188 286.171875 73.019531 284.316406 71.464844 282.421875 C 69.910156 280.527344 68.40625 278.597656 66.945312 276.628906 C 65.488281 274.664062 64.078125 272.660156 62.71875 270.621094 C 61.359375 268.585938 60.046875 266.515625 58.789062 264.414062 C 57.53125 262.3125 56.324219 260.183594 55.171875 258.023438 C 54.015625 255.859375 52.914062 253.671875 51.867188 251.457031 C 50.820312 249.242188 49.828125 247.003906 48.890625 244.742188 C 47.953125 242.480469 47.074219 240.191406 46.25 237.886719 C 45.421875 235.578125 44.65625 233.253906 43.945312 230.910156 C 43.234375 228.566406 42.582031 226.207031 41.988281 223.828125 C 41.390625 221.453125 40.855469 219.0625 40.378906 216.660156 C 39.898438 214.257812 39.480469 211.84375 39.121094 209.421875 C 38.761719 207 38.464844 204.566406 38.222656 202.128906 C 37.984375 199.691406 37.804688 197.25 37.683594 194.800781 C 37.5625 192.355469 37.503906 189.90625 37.503906 187.457031 C 37.503906 185.007812 37.5625 182.558594 37.683594 180.109375 C 37.804688 177.664062 37.984375 175.222656 38.222656 172.78125 C 38.464844 170.34375 38.761719 167.914062 39.121094 165.488281 C 39.480469 163.066406 39.898438 160.652344 40.378906 158.25 C 40.855469 155.847656 41.390625 153.457031 41.988281 151.082031 C 42.582031 148.707031 43.234375 146.347656 43.945312 144 C 44.65625 141.65625 45.421875 139.332031 46.25 137.023438 C 47.074219 134.71875 47.953125 132.433594 48.890625 130.167969 C 49.828125 127.90625 50.820312 125.664062 51.867188 123.453125 C 52.914062 121.238281 54.015625 119.050781 55.171875 116.890625 C 56.324219 114.726562 57.53125 112.597656 58.789062 110.496094 C 60.046875 108.394531 61.359375 106.324219 62.71875 104.289062 C 64.078125 102.25 65.488281 100.25 66.945312 98.28125 C 68.40625 96.3125 69.910156 94.382812 71.464844 92.488281 C 73.019531 90.59375 74.617188 88.738281 76.261719 86.925781 C 77.90625 85.109375 79.59375 83.335938 81.324219 81.605469 C 83.058594 79.871094 84.832031 78.183594 86.644531 76.539062 C 88.460938 74.890625 90.3125 73.292969 92.207031 71.738281 C 94.097656 70.183594 96.027344 68.675781 97.996094 67.21875 C 99.960938 65.757812 101.964844 64.347656 104 62.988281 C 106.035156 61.625 108.101562 60.316406 110.203125 59.054688 C 112.304688 57.796875 114.433594 56.589844 116.59375 55.433594 C 118.753906 54.28125 120.941406 53.179688 123.152344 52.132812 C 125.367188 51.085938 127.605469 50.089844 129.867188 49.152344 C 132.128906 48.214844 134.414062 47.335938 136.71875 46.507812 C 139.023438 45.683594 141.347656 44.917969 143.691406 44.203125 C 146.035156 43.496094 148.394531 42.839844 150.769531 42.246094 C 153.144531 41.648438 155.53125 41.113281 157.933594 40.636719 C 160.335938 40.15625 162.75 39.738281 165.171875 39.378906 C 167.59375 39.019531 170.023438 38.722656 172.460938 38.480469 C 174.898438 38.242188 177.339844 38.0625 179.785156 37.941406 C 182.230469 37.820312 184.675781 37.761719 187.125 37.757812 C 189.574219 37.761719 192.023438 37.820312 194.46875 37.941406 C 196.914062 38.0625 199.355469 38.242188 201.792969 38.480469 C 204.226562 38.722656 206.65625 39.019531 209.078125 39.378906 C 211.5 39.738281 213.914062 40.15625 216.316406 40.636719 C 218.714844 41.113281 221.105469 41.648438 223.480469 42.246094 C 225.855469 42.839844 228.214844 43.492188 230.558594 44.203125 C 232.902344 44.917969 235.226562 45.683594 237.53125 46.507812 C 239.835938 47.335938 242.121094 48.214844 244.382812 49.152344 C 246.644531 50.089844 248.882812 51.085938 251.097656 52.132812 C 253.308594 53.179688 255.496094 54.28125 257.65625 55.433594 C 259.816406 56.589844 261.945312 57.796875 264.046875 59.054688 C 266.144531 60.316406 268.214844 61.625 270.25 62.988281 C 272.285156 64.347656 274.289062 65.757812 276.253906 67.21875 C 278.222656 68.675781 280.152344 70.183594 282.042969 71.738281 C 283.9375 73.292969 285.789062 74.890625 287.605469 76.539062 C 289.417969 78.179688 291.191406 79.871094 292.921875 81.601562 C 294.65625 83.335938 296.34375 85.109375 297.988281 86.925781 C 299.632812 88.738281 301.230469 90.59375 302.785156 92.488281 C 304.335938 94.382812 305.84375 96.3125 307.300781 98.28125 C 308.761719 100.25 310.171875 102.25 311.53125 104.289062 C 312.890625 106.324219 314.199219 108.394531 315.460938 110.496094 C 316.71875 112.597656 317.925781 114.726562 319.078125 116.886719 C 320.234375 119.046875 321.335938 121.238281 322.382812 123.453125 C 323.429688 125.664062 324.421875 127.90625 325.355469 130.167969 C 326.292969 132.433594 327.175781 134.71875 328 137.023438 C 328.824219 139.332031 329.59375 141.65625 330.304688 144 C 331.015625 146.34375 331.667969 148.707031 332.261719 151.082031 C 332.859375 153.457031 333.394531 155.847656 333.871094 158.25 C 334.351562 160.652344 334.769531 163.066406 335.128906 165.488281 C 335.488281 167.914062 335.789062 170.34375 336.027344 172.78125 C 336.265625 175.222656 336.449219 177.664062 336.566406 180.109375 C 336.6875 182.558594 336.746094 185.007812 336.746094 187.457031 Z M 336.746094 187.457031 "/></g><path style="fill-rule:evenodd;fill:#ffffff;fill-opacity:1;stroke-width:2.14;stroke-linecap:round;stroke-linejoin:round;stroke:#ffffff;stroke-opacity:1;stroke-miterlimit:1.5;" d="M 30640.398024 9422.351106 L 30685.698568 9422.031502 L 30795.699164 9582.117941 L 30750.00021 9581.71953 Z M 30640.398024 9422.351106 " transform="matrix(0.892218,0,0,0.892218,-27220.123328,-8292.222655)"/><path style="fill-rule:evenodd;fill:#ffffff;fill-opacity:1;stroke-width:2.14;stroke-linecap:round;stroke-linejoin:round;stroke:#ffffff;stroke-opacity:1;stroke-miterlimit:1.5;" d="M 30776.803141 9422.031502 L 30790.90073 9422.031502 L 30654.000884 9582.117941 L 30640.398024 9582.117941 Z M 30776.803141 9422.031502 " transform="matrix(0.892218,0,0,0.892218,-27220.123328,-8292.222655)"/><path style=" stroke:none;fill-rule:evenodd;fill:#000000;fill-opacity:1;" d="M 134.484375 125.375 L 153.21875 125.484375 L 239.851562 249.535156 L 221.117188 249.511719 Z M 134.484375 125.375 "/><path style=" stroke:none;fill-rule:evenodd;fill:#000000;fill-opacity:1;" d="M 134.484375 125.375 L 153.21875 125.484375 L 239.851562 249.535156 L 221.117188 249.511719 Z M 135.910156 126.132812 C 135.910156 126.132812 221.472656 248.761719 221.472656 248.761719 C 221.472656 248.761719 238.425781 248.785156 238.425781 248.785156 L 152.773438 126.230469 Z M 135.910156 126.132812 "/></g></svg>